<svg id="Layer_1" data-name="Layer 1" xmlns="http://www.w3.org/2000/svg" width="17.859" height="17.859" viewBox="0 0 17.859 17.859">
  <path id="Caminho_20" data-name="Caminho 20" d="M172.241,3.209a3.739,3.739,0,0,1-.289.383c-.359.372-.727.732-1.1,1.1.089.1.174.186.248.284a.488.488,0,0,1-.039.73c-.233.239-.478.474-.723.718.022.038.038.067.055.093a.522.522,0,0,1-.068.7q-1.087,1.1-2.181,2.184a.469.469,0,0,1-.542.124c-.29-.118-.579-.241-.857-.384a.251.251,0,0,0-.353.065c-.3.313-.6.612-.91.915a.54.54,0,0,1-.852,0Q163.377,8.86,162.12,7.6a.539.539,0,0,1,0-.852c.326-.326.646-.651.977-.972a.153.153,0,0,0,.035-.21c-.132-.271-.258-.546-.382-.82a.582.582,0,0,1,.15-.723c.686-.67,1.359-1.353,2.037-2.031a.582.582,0,0,1,.876-.1l.634-.638c.357-.357.6-.356.963,0l.137.131c.37-.372.73-.741,1.1-1.1A3.97,3.97,0,0,1,169.032,0h.244a3.532,3.532,0,0,1,.382.291q1.158,1.146,2.3,2.3a3.222,3.222,0,0,1,.279.372Zm-9.026,3.943,1.868,1.873c.3-.305.623-.611.925-.93a.541.541,0,0,1,.675-.146c.279.125.561.25.837.385a.175.175,0,0,0,.24-.041c.32-.329.645-.651.972-.977.16-.159.329-.309.47-.44L165.38,3.053c-.477.479-.971.97-1.458,1.468a.2.2,0,0,0-.017.178c.127.3.269.591.4.889a.52.52,0,0,1-.14.63C163.838,6.526,163.525,6.845,163.215,7.152Zm5.953-5.83-.837.833,1.764,1.767.837-.837Zm-2.586,1.313q1.52,1.518,3.014,3.013l.323-.31-3.008-3.009Z" transform="translate(-154.382)" fill="#fff"/>
  <path id="Caminho_21" data-name="Caminho 21" d="M0,158.112a3.711,3.711,0,0,1,.279-.372c.319-.329.651-.649.985-.982-.222-.349-.082-.613.186-.856.224-.2.433-.421.655-.64-.033-.047-.058-.083-.084-.118a.52.52,0,0,1,.051-.8q1.09-1.092,2.182-2.182.744-.747,1.49-1.491a.539.539,0,0,1,.852,0q2.036,2.034,4.068,4.069a.534.534,0,0,1,0,.828q-1.849,1.851-3.7,3.7a.513.513,0,0,1-.773.05c-.036-.027-.072-.056-.123-.1-.239.24-.474.48-.713.717a.568.568,0,0,1-.791.134c-.322.32-.642.65-.972.965a3.87,3.87,0,0,1-.383.289H2.965a3.624,3.624,0,0,1-.382-.291q-1.158-1.146-2.3-2.3A3.446,3.446,0,0,1,0,158.356Zm6.533.039,3-3L6.174,151.8l-3,3ZM3.075,160l.7-.693L2.01,157.54l-.695.7Zm2.211-1.505-2.437-2.436-.367.358,2.44,2.441Z" transform="translate(0 -143.462)" fill="#fff"/>
  <path id="Caminho_22" data-name="Caminho 22" d="M205.051,146.221a1.433,1.433,0,0,1-.3-.172c-.2-.181-.394-.379-.582-.577a.529.529,0,0,1,.743-.752c.207.2.406.4.6.6a.465.465,0,0,1,.093.547A.6.6,0,0,1,205.051,146.221Z" transform="translate(-194.522 -137.843)" fill="#fff"/>
  <path id="Caminho_23" data-name="Caminho 23" d="M92.251,203.649a1.76,1.76,0,0,1-.386-.216q-1-.981-1.985-1.978a.52.52,0,0,1,.008-.777q.651-.657,1.305-1.306a.531.531,0,0,1,.816.007q.97.963,1.933,1.931a.53.53,0,0,1,0,.815c-.432.438-.866.876-1.309,1.3A1.877,1.877,0,0,1,92.251,203.649Zm-.646-3.131-.566.554,1.2,1.2.567-.548Z" transform="translate(-85.537 -189.921)" fill="#fff"/>
</svg>
