<svg xmlns="http://www.w3.org/2000/svg" width="12.122" height="12.122" viewBox="0 0 12.122 12.122">
  <g id="Layer_1" data-name="Layer 1" transform="translate(0 0)">
    <path id="Caminho_12" data-name="Caminho 12" d="M7.718,68H1.136a.291.291,0,0,0-.053-.021,1.2,1.2,0,0,1-.852-.555A3.328,3.328,0,0,1,0,66.864V58.838A.211.211,0,0,0,.019,58.8,1.293,1.293,0,0,1,1.334,57.7q2.213,0,4.427,0a.932.932,0,0,1,.686.269q1.07,1.064,2.135,2.134a.932.932,0,0,1,.276.694c0,.288,0,.576,0,.864v5a1.3,1.3,0,0,1-.912,1.283C7.87,67.963,7.794,67.98,7.718,68ZM4.427,65.788c.308,0,.616,0,.923,0a.284.284,0,0,1,.173.071c.173.162.336.333.505.5a.358.358,0,1,0,.505-.5c-.169-.171-.343-.338-.508-.513a.246.246,0,0,1-.065-.152q-.007-.935,0-1.87a.248.248,0,0,1,.063-.153c.165-.175.339-.342.508-.513a.358.358,0,1,0-.5-.505c-.168.166-.332.338-.505.5a.284.284,0,0,1-.172.074q-.923.008-1.847,0a.281.281,0,0,1-.172-.073c-.173-.162-.337-.333-.505-.5a.365.365,0,0,0-.537-.026.36.36,0,0,0,.032.527c.169.171.343.338.508.513a.264.264,0,0,1,.067.164q.007.923,0,1.846a.282.282,0,0,1-.074.173c-.162.173-.333.337-.5.505a.365.365,0,0,0-.028.537.36.36,0,0,0,.527-.032c.154-.152.311-.3.459-.462a.333.333,0,0,1,.277-.117C3.851,65.794,4.139,65.788,4.427,65.788Zm2.541-5.272a.221.221,0,0,0-.022-.038q-.656-.657-1.314-1.312a.16.16,0,0,0-.1-.041c-1.151,0-2.3,0-3.453,0a.689.689,0,0,0-.656.656.7.7,0,0,0,.719.738q2.365,0,4.731,0l.1-.006Z" transform="translate(0 -55.879)"/>
    <path id="Caminho_13" data-name="Caminho 13" d="M272.736,0A.431.431,0,0,1,273,.476c-.009.095,0,.189,0,.284a.355.355,0,0,1-.354.353h-.024a.718.718,0,0,0-.722.3c-.225.263-.484.5-.721.735L270.16,1.132c.04-.036.095-.08.143-.129.263-.261.522-.526.788-.784.083-.081.181-.146.272-.219Z" transform="translate(-261.632 0)"/>
    <path id="Caminho_14" data-name="Caminho 14" d="M329.645,118.328c-.023.071-.043.143-.071.212a.884.884,0,0,1-1,.524.871.871,0,0,1-.7-.876.9.9,0,0,1,.11-.393c.167-.289.349-.57.543-.842a.286.286,0,0,1,.481.021,3.751,3.751,0,0,1,.637,1.093Z" transform="translate(-317.523 -113.143)"/>
    <path id="Caminho_15" data-name="Caminho 15" d="M226.915,46.065l-1.845-1.846c.087-.084.173-.176.269-.258a.344.344,0,0,1,.465.011q.683.673,1.357,1.357a.344.344,0,0,1,.011.474C227.09,45.893,227,45.977,226.915,46.065Z" transform="translate(-217.965 -42.49)"/>
    <path id="Caminho_16" data-name="Caminho 16" d="M114.69,241.66v-1.61H116.3v1.61Z" transform="translate(-111.07 -232.472)"/>
  </g>
</svg>
