<svg xmlns="http://www.w3.org/2000/svg" xmlns:xlink="http://www.w3.org/1999/xlink" width="14" height="14" viewBox="0 0 14 14">
  <defs>
    <clipPath id="clip-path">
      <rect id="Retângulo_46" data-name="Retângulo 46" width="14" height="14" transform="translate(0.491)" fill="#fff" opacity="0.4"/>
    </clipPath>
  </defs>
  <g id="Location" transform="translate(-3.491 -3)">
    <g id="Grupo_de_máscara_10" data-name="Grupo de máscara 10" transform="translate(3 3)" clip-path="url(#clip-path)">
      <g id="Layer_2" data-name="Layer 2">
        <g id="invisible_box" data-name="invisible box">
          <rect id="Retângulo_45" data-name="Retângulo 45" width="14" height="14" transform="translate(0.491)" fill="none"/>
        </g>
        <g id="icons_Q2" data-name="icons Q2" transform="translate(1.031 0.583)">
          <path id="Caminho_31" data-name="Caminho 31" d="M7.25,2A5.25,5.25,0,1,1,2,7.25,5.25,5.25,0,0,1,7.25,2m0-1.167A6.388,6.388,0,1,0,11.8,2.7,6.417,6.417,0,0,0,7.25.833Z" transform="translate(-0.833 -0.833)" fill="#fff"/>
          <path id="Caminho_32" data-name="Caminho 32" d="M11.367,5.534,7.488,7.488,5.534,11.367a.321.321,0,0,0,.408.408L9.822,9.822l1.954-3.879a.321.321,0,0,0-.408-.408Zm-2.712,3.7a.583.583,0,1,1,.583-.583A.583.583,0,0,1,8.655,9.238Z" transform="translate(-2.238 -2.238)" fill="#fff"/>
        </g>
      </g>
    </g>
  </g>
</svg>
