<svg xmlns="http://www.w3.org/2000/svg" viewBox="0 0 146.21 232.11"><g id="Layer_2" data-name="Layer 2"><g id="Layer_1-2" data-name="Layer 1"><path d="M16.4,65.22C32,78,45.94,77,60.49,61.89c13.29,7.78,21,19.25,21.11,34.78q.5,48,0,96c-.2,21.5-18,39-39.26,39.44-22.4.48-41.39-16-41.89-38.25C-.28,161,0,128.19.39,95.36.54,83.08,6.45,73.11,16.4,65.22Zm36.77,75.86q0,26.5,0,53c0,2.92-.18,6.25,3.73,6.39S61,197.41,61,194.41q0-53,0-106c0-3-.15-6.25-4-6.16s-3.83,3.36-3.83,6.34Q53.21,114.81,53.17,141.08Z"/><path d="M99.7,93.07h12.48v6.34c0,13.18,0,26.35,0,39.52,0,7.41,3.91,11.95,10.3,12.18,6.71.24,11.1-4.11,11.11-11.9,0-26,0-52-.36-78-.14-11.06-8.26-17.83-21-18-13.67-.16-27.34-.22-41,.06-4.44.09-7.26-.62-7.75-5.62-.17-1.73-1.23-3.37-2.11-5.65,9.92,0,19.5-.11,29.06,0,10.15.16,20.4-.25,30.41,1.07,16.65,2.18,25.32,13,25.33,29.87,0,24.34.08,48.68-.07,73a47.46,47.46,0,0,1-1.6,12.81c-5,17.44-26.32,22.57-39.11,9.62a19.16,19.16,0,0,1-5.7-14C99.69,127.49,99.7,110.49,99.7,93.07Z"/><path d="M17,46.22C17,34.88,25.45,26.14,36.66,26a20.09,20.09,0,1,1,.72,40.18A19.68,19.68,0,0,1,17,46.22Zm19.84-6.41c-3.83.45-6.14,2.6-6.08,6.43s2.57,6.13,6.39,6.08S43.3,49.85,43.23,46,40.68,40.16,36.84,39.81Z"/><path d="M52.18,12.52v8.83l-.9.79c-3.52-4.06-12.23.05-12.41-9.62-4.91,0-9.69,0-14.47,0-4.16,0-7.23-1.43-7.37-6.18-.12-4,2.38-6.28,7.2-6.3C38.69,0,53.16,0,67.62,0c4.13,0,6.8,1.88,6.93,6.11S72,12.41,67.9,12.49C62.79,12.59,57.67,12.52,52.18,12.52Z"/><path d="M119.46,73a12.93,12.93,0,0,1-12.89,13A13.13,13.13,0,0,1,93.34,72.77c.11-7.58,5.79-13,13.45-12.87A12.62,12.62,0,0,1,119.46,73Zm-12.62-6.6c-2,2.66-4,4.15-3.89,5.48.13,1.69,2,3.26,3,4.88,1.42-1.31,3.73-2.45,4-4S108.46,69.46,106.84,66.4Z"/></g></g></svg>