<svg xmlns="http://www.w3.org/2000/svg" width="12.424" height="13.251" viewBox="0 0 12.424 13.251">
  <path id="Icon_awesome-shield-alt" data-name="Icon awesome-shield-alt" d="M12.785,2.168,7.816.1a1.246,1.246,0,0,0-.955,0L1.891,2.168a1.241,1.241,0,0,0-.766,1.147c0,5.138,2.964,8.689,5.733,9.843a1.246,1.246,0,0,0,.955,0c2.218-.924,5.736-4.115,5.736-9.843A1.243,1.243,0,0,0,12.785,2.168ZM7.34,11.553l0-9.862,4.553,1.9a8.869,8.869,0,0,1-4.55,7.964Z" transform="translate(-1.125 -0.002)" fill="#fff"/>
</svg>
